<svg viewBox="0 0 24 24" xmlns="http://www.w3.org/2000/svg"><path d="m8 21h-4a1 1 0 0 1 -1-1v-4a1 1 0 0 0 -2 0v4a3 3 0 0 0 3 3h4a1 1 0 0 0 0-2zm14-6a1 1 0 0 0 -1 1v4a1 1 0 0 1 -1 1h-4a1 1 0 0 0 0 2h4a3 3 0 0 0 3-3v-4a1 1 0 0 0 -1-1zm-2-14h-4a1 1 0 0 0 0 2h4a1 1 0 0 1 1 1v4a1 1 0 0 0 2 0v-4a3 3 0 0 0 -3-3zm-18 8a1 1 0 0 0 1-1v-4a1 1 0 0 1 1-1h4a1 1 0 0 0 0-2h-4a3 3 0 0 0 -3 3v4a1 1 0 0 0 1 1zm8-4h-4a1 1 0 0 0 -1 1v4a1 1 0 0 0 1 1h4a1 1 0 0 0 1-1v-4a1 1 0 0 0 -1-1zm-1 4h-2v-2h2zm5 2h4a1 1 0 0 0 1-1v-4a1 1 0 0 0 -1-1h-4a1 1 0 0 0 -1 1v4a1 1 0 0 0 1 1zm1-4h2v2h-2zm-5 6h-4a1 1 0 0 0 -1 1v4a1 1 0 0 0 1 1h4a1 1 0 0 0 1-1v-4a1 1 0 0 0 -1-1zm-1 4h-2v-2h2zm5-1a1 1 0 0 0 1-1 1 1 0 0 0 0-2h-1a1 1 0 0 0 -1 1v1a1 1 0 0 0 1 1zm4-3a1 1 0 0 0 -1 1v3a1 1 0 0 0 0 2h1a1 1 0 0 0 1-1v-4a1 1 0 0 0 -1-1zm-4 4a1 1 0 1 0 1 1 1 1 0 0 0 -1-1z"/></svg>